<svg width="16" height="14" viewBox="0 0 16 14" fill="none" xmlns="http://www.w3.org/2000/svg">
<path d="M7.64465 11.4958L2.9309 6.78206L7.64465 2.06832C8.11845 1.59452 8.11845 0.829141 7.64465 0.355337C7.17084 -0.118467 6.40547 -0.118467 5.93166 0.355337L0.355354 5.93165C-0.118451 6.40545 -0.118451 7.17083 0.355354 7.64463L5.93166 13.2209C6.40547 13.6947 7.17084 13.6947 7.64465 13.2209C8.1063 12.7471 8.11845 11.9696 7.64465 11.4958Z" fill="#464A61"/>
<path d="M15.6446 11.4958L10.9309 6.78206L15.6446 2.06832C16.1185 1.59452 16.1185 0.829141 15.6446 0.355337C15.1708 -0.118467 14.4055 -0.118467 13.9317 0.355337L8.35535 5.93165C7.88155 6.40545 7.88155 7.17083 8.35535 7.64463L13.9317 13.2209C14.4055 13.6947 15.1708 13.6947 15.6446 13.2209C16.1063 12.7471 16.1185 11.9696 15.6446 11.4958Z" fill="#464A61"/>
</svg>
