<svg width="48" height="48" viewBox="0 0 48 48" fill="none" xmlns="http://www.w3.org/2000/svg">
<path fill-rule="evenodd" clip-rule="evenodd" d="M45.4142 2.58578C45.9575 3.12906 46.1415 3.93552 45.8877 4.6607L31.8877 44.6607C31.6168 45.4347 30.9009 45.9649 30.0815 45.9983C29.2622 46.0318 28.5054 45.5616 28.1724 44.8123L20.4848 27.5152L3.18773 19.8276C2.43837 19.4946 1.96824 18.7378 2.00167 17.9185C2.0351 17.0991 2.56531 16.3832 3.33931 16.1123L43.3393 2.11228C44.0645 1.85847 44.8709 2.04251 45.4142 2.58578ZM24.3855 26.4429L29.7788 38.5778L39.2171 11.6114L24.3855 26.4429ZM36.3886 8.78294L9.42216 18.2212L21.5571 23.6145L36.3886 8.78294Z" fill="#464A61"/>
</svg>
