<svg width="16" height="16" viewBox="0 0 16 16" fill="none" xmlns="http://www.w3.org/2000/svg">
<path d="M10.0377 15.9975H9.71965C6.82481 15.9975 3.92998 15.9975 1.03578 15.9975C0.304103 15.9975 -0.00581217 15.6901 0.00356026 14.9491C0.0160568 13.9418 -0.0670454 12.9315 0.185385 11.9349C1.06202 8.47271 4.8766 6.53012 8.18194 7.87287C8.2463 7.89912 8.30878 7.93161 8.415 7.98097C7.66521 8.34587 7.4384 9.07442 7.09349 9.7005C6.77358 10.2816 6.98602 10.9614 7.53587 11.3944C7.78164 11.5877 7.78289 11.7803 7.53962 11.9724C6.93728 12.4472 6.78857 13.1421 7.15472 13.8075C7.3353 14.1355 7.52087 14.4611 7.71769 14.7791C8.08509 15.3714 8.75116 15.5976 9.40098 15.3614C9.73506 15.2402 9.93105 15.3525 9.98895 15.6982C10.0046 15.7901 10.0196 15.8813 10.0389 15.9969L10.0377 15.9975Z" fill="#464A61"/>
<path d="M7.8326 13.112C7.84635 12.9265 7.90071 12.754 8.06004 12.6796C8.63926 12.4078 8.7636 11.9386 8.69174 11.3575C8.67675 11.2357 8.67175 11.1351 8.55615 11.0713C8.52929 11.0563 8.50617 11.0338 8.4818 11.0151C7.94736 10.6081 7.84593 10.1174 8.17751 9.543C8.51533 8.95733 8.99728 8.79508 9.62336 9.05626C9.79207 9.12749 9.9314 9.15249 10.077 9.01502C10.1438 8.95192 10.2276 8.89068 10.3138 8.86756C10.7374 8.7551 10.798 8.43831 10.8193 8.06466C10.8518 7.50981 11.013 7.37547 11.561 7.37485C11.8521 7.37485 12.1439 7.36923 12.4351 7.37672C12.7575 7.38485 12.9956 7.54918 12.9806 7.85409C12.9512 8.47517 13.2586 8.8132 13.786 9.04314C13.9197 9.10125 14.0228 9.16123 14.1552 9.07313C14.1721 9.06189 14.1946 9.05939 14.2134 9.05126C14.8344 8.79258 15.3103 8.94963 15.6411 9.52238C16.1528 10.409 16.1559 10.4128 15.3424 11.0163C15.1831 11.1344 15.0894 11.2482 15.15 11.4544C15.1725 11.5318 15.1856 11.6268 15.1625 11.7018C15.0313 12.1279 15.2818 12.3347 15.5911 12.5478C16.0803 12.8846 16.1028 13.0489 15.8117 13.555C15.6717 13.7981 15.5355 14.0443 15.3887 14.283C15.2162 14.5641 14.9675 14.6916 14.7057 14.5191C14.1471 14.1505 13.6897 14.3398 13.2149 14.6579C13.1155 14.7247 13.0687 14.7884 13.0612 14.9022C13.0518 15.0365 13.0281 15.1702 13.0112 15.3045C12.9356 15.9013 12.825 15.9981 12.212 15.9981C11.9415 15.9981 11.6709 16.0031 11.4004 15.9969C11.0717 15.9894 10.9099 15.8469 10.8418 15.5232C10.8399 15.5132 10.8343 15.5026 10.8355 15.4926C10.9336 14.8291 10.4831 14.5598 9.99763 14.2992C9.85892 14.2248 9.7627 14.2592 9.65085 14.3123C8.59427 14.8153 8.60052 14.5785 8.16189 13.8018C8.03505 13.5775 7.86259 13.3732 7.83198 13.1133L7.8326 13.112ZM13.1262 11.7049C13.1343 11.0295 12.615 10.4896 11.9421 10.4734C11.2642 10.4571 10.6981 11.0051 10.6949 11.6799C10.6918 12.3416 11.236 12.8902 11.9021 12.8965C12.5738 12.9033 13.1187 12.3735 13.1262 11.7049Z" fill="#464A61"/>
<path d="M5.97872 1.79425e-06C7.7876 0.00187628 9.25345 1.47272 9.25032 3.2841C9.24782 5.09111 7.77323 6.56133 5.96622 6.55883C4.16297 6.5557 2.68962 5.07673 2.69212 3.2716C2.69462 1.46523 4.16922 -0.00187269 5.97872 1.79425e-06Z" fill="#464A61"/>
</svg>
