<svg width="18" height="16" viewBox="0 0 18 16" fill="none" xmlns="http://www.w3.org/2000/svg">
<path d="M8.93188 15.9621C7.84294 15.9621 6.7547 15.9649 5.66576 15.9614C4.73208 15.9578 4.27051 15.4919 4.25646 14.5329C4.2403 13.4251 4.15951 12.3136 4.30985 11.2101C4.60351 9.05239 6.23974 7.55523 8.42675 7.435C9.10541 7.39779 9.79601 7.36988 10.4543 7.54307C12.1446 7.98606 13.1837 9.11894 13.6382 10.8229C13.7155 11.1128 13.738 11.4112 13.7408 11.7089C13.7485 12.6507 13.7626 13.5932 13.7457 14.535C13.7281 15.5219 13.367 15.8812 12.4067 15.9463C11.7055 15.9936 11.0037 16.0029 10.3011 15.9993C9.84449 15.9971 9.38783 15.9993 8.93188 15.9993V15.9621Z" fill="#464A61"/>
<path d="M8.98876 6.22629C7.29423 6.21985 5.93691 4.82646 5.94745 3.10459C5.95869 1.38486 7.33849 -0.0106734 9.01616 6.15195e-05C10.7016 0.0115121 12.0666 1.41706 12.0575 3.1325C12.0483 4.85938 10.6868 6.23273 8.98876 6.22629Z" fill="#464A61"/>
<path d="M1.93593 14.8121C1.62049 14.8121 1.30365 14.8257 0.988907 14.8092C0.433195 14.7806 0.0186945 14.3619 0.0137766 13.793C0.00253596 12.4346 -0.0136225 11.0763 0.0208021 9.71872C0.0425809 8.87567 0.450758 8.19007 1.1814 7.79932C2.21484 7.24612 3.30027 7.29192 4.35971 7.75352C4.75946 7.92743 4.74681 7.96607 4.4665 8.2874C3.50963 9.38379 3.21808 10.7121 3.19278 12.1255C3.17803 12.9234 3.19138 13.7221 3.21105 14.5194C3.21667 14.7562 3.14501 14.835 2.91739 14.8249C2.59071 14.8106 2.26262 14.8214 1.93523 14.8214C1.93523 14.8185 1.93593 14.8149 1.93593 14.8121Z" fill="#464A61"/>
<path d="M17.996 11.7304C17.996 12.3745 18.0003 13.0179 17.9953 13.662C17.9897 14.3612 17.5689 14.7991 16.8818 14.8127C16.2966 14.8242 15.7114 14.8099 15.1262 14.8263C14.869 14.8335 14.7875 14.7569 14.7939 14.4828C14.8149 13.4702 14.8487 12.4575 14.7735 11.4441C14.6821 10.2154 14.2993 9.11467 13.4625 8.20865C13.2785 8.00969 13.3466 7.9324 13.5258 7.81503C14.3927 7.24322 16.2172 7.29404 17.0392 7.93097C17.6532 8.40688 17.9813 9.04454 17.9946 9.83391C18.0052 10.4658 17.9967 11.0978 17.9967 11.7297L17.996 11.7304Z" fill="#464A61"/>
<path d="M2.80426 6.22485C1.73921 6.21769 0.891938 5.34888 0.891938 4.26466C0.891938 3.17328 1.77504 2.27728 2.83728 2.29159C3.89601 2.30519 4.7475 3.18259 4.7489 4.26323C4.75031 5.36176 3.88758 6.232 2.80426 6.22485Z" fill="#464A61"/>
<path d="M15.181 6.22486C14.1146 6.22271 13.2645 5.36249 13.2567 4.27684C13.249 3.18617 14.1244 2.28731 15.1901 2.2916C16.2601 2.2959 17.1271 3.19476 17.1137 4.28614C17.1004 5.37394 16.2503 6.22701 15.181 6.22486Z" fill="#464A61"/>
</svg>
