<svg width="16" height="16" viewBox="0 0 16 16" fill="none" xmlns="http://www.w3.org/2000/svg">
<path d="M3.73226 7.70564C3.77026 6.93105 3.67093 6.15247 3.86091 5.38322C4.36819 3.33144 6.35931 1.9136 8.42376 2.1489C10.6122 2.39821 12.2593 4.17735 12.266 6.34378C12.2693 7.48633 12.366 8.63487 12.2053 9.77142C11.92 11.7819 10.0976 13.323 8.03713 13.333C5.95136 13.343 4.12422 11.8145 3.80225 9.80141C3.69093 9.10415 3.76892 8.40423 3.73359 7.70564H3.73226Z" fill="#3D3C3C"/>
<path d="M2.67305 7.9002C2.67305 8.69279 2.67372 9.32538 2.67305 9.95865C2.67172 10.4973 2.49974 10.6659 1.9498 10.6672C1.73849 10.6672 1.52784 10.6726 1.31653 10.6652C0.579279 10.6412 0.0166727 10.0806 0.00800694 9.34005C-0.00332518 8.45148 -0.00199199 7.56291 0.00800694 6.675C0.0160061 5.90242 0.585278 5.33581 1.36786 5.33981C1.63117 5.34115 1.71316 5.26115 1.77182 5.00652C2.46641 2.00617 5.06013 -0.0322763 8.11847 0.00038689C11.0468 0.0317169 13.5839 2.10683 14.2431 5.03185C14.3018 5.29248 14.4025 5.33581 14.6351 5.33648C15.4357 5.33981 15.997 5.90242 16.0036 6.69967C16.011 7.56557 16.011 8.43215 16.0036 9.29805C15.997 10.0946 15.4357 10.6572 14.6344 10.6606C14.4011 10.6619 14.3018 10.7066 14.2431 10.9665C13.5845 13.8889 10.9968 16.002 8.11647 16C7.79983 16 7.56919 15.8933 7.48587 15.578C7.39055 15.2201 7.66918 14.9428 8.11913 14.9288C9.44766 14.8875 10.6149 14.4322 11.5928 13.5316C12.7193 12.495 13.3052 11.1992 13.3319 9.66801C13.3512 8.55813 13.3446 7.44692 13.3339 6.33637C13.3072 3.564 11.1161 1.25092 8.35977 1.0756C5.55608 0.896957 3.09767 2.91407 2.72438 5.69644C2.61906 6.48236 2.70772 7.27227 2.67305 7.9002Z" fill="#3D3C3C"/>
</svg>
