<svg width="16" height="16" viewBox="0 0 16 16" fill="none" xmlns="http://www.w3.org/2000/svg">
<path d="M7.65018 15.9989C5.65153 15.9989 3.65351 15.9995 1.65486 15.9989C0.577758 15.9983 0.00109335 15.4189 0.000468579 14.3371C-0.000156193 11.5677 -0.000156193 8.79777 0.000468579 6.02843C0.000468579 4.94094 0.570885 4.33033 1.64862 4.37908C2.38897 4.4122 3.00687 4.21595 3.63602 3.83721C5.62217 2.64097 7.63706 1.49224 9.64132 0.32538C10.6503 -0.262112 11.3976 -0.057115 11.9823 0.965371C12.5865 2.02161 13.1938 3.07597 13.7917 4.13595C13.8804 4.29345 13.9854 4.37908 14.1622 4.42345C14.8194 4.58907 15.2268 5.09157 15.2574 5.76906C15.273 6.11218 15.2686 6.45592 15.2636 6.79967C15.258 7.15529 15.1512 7.26341 14.7907 7.26529C14.0104 7.27029 13.2294 7.25966 12.449 7.26904C10.9896 7.28654 9.86124 8.16527 9.53136 9.52963C9.11901 11.2352 10.3861 12.9746 12.136 13.0646C12.977 13.1077 13.8217 13.0802 14.6645 13.0846C15.1799 13.0871 15.2636 13.1702 15.2655 13.6821C15.2661 13.9421 15.2699 14.2027 15.2643 14.4627C15.2443 15.4071 14.6532 15.9945 13.7086 15.9977C12.1579 16.002 10.6066 15.9989 9.05591 15.9989C8.58733 15.9989 8.11876 15.9989 7.65018 15.9989ZM4.27266 4.36345C4.69313 4.36345 5.10361 4.36595 5.51346 4.36095C5.57156 4.36033 5.63529 4.33408 5.68714 4.30408C7.47337 3.26534 9.25771 2.22348 11.0458 1.18787C11.2126 1.09099 11.1833 1.01975 11.0683 0.914122C10.8234 0.689125 10.4898 0.675375 10.1174 0.892247C8.23246 1.98911 6.34878 3.08722 4.46634 4.18658C4.39949 4.22595 4.30765 4.24095 4.27266 4.36345ZM10.0381 4.29408C10.0474 4.3097 10.0562 4.3247 10.0655 4.34033H13.0694C12.8239 3.90971 12.5984 3.51409 12.3728 3.11722C12.3291 3.04034 12.2935 2.97847 12.1835 3.04284C11.47 3.46284 10.754 3.87721 10.0381 4.29408Z" fill="#464A61"/>
<path d="M13.5995 7.99705C14.0156 7.99705 14.4323 7.99205 14.8484 7.9983C15.5325 8.0083 15.9874 8.45392 15.9955 9.13203C16.0036 9.82952 16.0036 10.527 15.9955 11.2245C15.988 11.8901 15.5469 12.3507 14.8828 12.362C14.0193 12.377 13.1547 12.3857 12.2919 12.3589C11.0817 12.3207 10.1676 11.3376 10.1839 10.1345C10.2001 8.96079 11.1541 8.0183 12.3512 7.9983C12.7673 7.99142 13.1828 7.99705 13.5995 7.99705ZM12.3743 10.8983C12.7842 10.8908 13.0922 10.562 13.0772 10.1495C13.0628 9.7564 12.7354 9.4439 12.3462 9.4539C11.9613 9.46328 11.6365 9.79452 11.6352 10.1783C11.634 10.5789 11.9701 10.9058 12.3743 10.8983Z" fill="#464A61"/>
</svg>
