<svg width="24" height="24" viewBox="0 0 24 24" fill="none" xmlns="http://www.w3.org/2000/svg">
<path fill-rule="evenodd" clip-rule="evenodd" d="M4.01247 2.69991C3.66436 2.69991 3.3305 2.8382 3.08435 3.08435C2.8382 3.3305 2.69991 3.66436 2.69991 4.01247V19.9875C2.69991 20.3356 2.8382 20.6695 3.08435 20.9156C3.3305 21.1618 3.66436 21.3001 4.01247 21.3001H10.6687C11.4143 21.3001 12.0187 21.9045 12.0187 22.65C12.0187 23.3956 11.4143 24 10.6687 24H4.01247C2.94829 24 1.92771 23.5773 1.17522 22.8248C0.422741 22.0723 0 21.0517 0 19.9875V4.01247C0 2.9483 0.422741 1.92771 1.17522 1.17522C1.92771 0.422741 2.9483 0 4.01247 0H10.6687C11.4143 0 12.0187 0.604397 12.0187 1.34996C12.0187 2.09552 11.4143 2.69991 10.6687 2.69991H4.01247ZM16.3705 5.72042C16.8976 5.19322 17.7524 5.19322 18.2796 5.72042L23.6046 11.0454C24.1318 11.5726 24.1318 12.4274 23.6046 12.9546L18.2796 18.2796C17.7524 18.8068 16.8976 18.8068 16.3705 18.2796C15.8433 17.7524 15.8433 16.8976 16.3705 16.3705L19.391 13.35H9.33749C8.59193 13.35 7.98753 12.7456 7.98753 12C7.98753 11.2544 8.59193 10.65 9.33749 10.65H19.391L16.3705 7.62954C15.8433 7.10235 15.8433 6.24761 16.3705 5.72042Z" fill="#464A61"/>
</svg>
