<svg width="15" height="16" viewBox="0 0 15 16" fill="none" xmlns="http://www.w3.org/2000/svg">
<g style="mix-blend-mode:multiply">
<path d="M0.000967997 4.24253V2.51858C-0.0288839 1.66034 0.635321 0.928969 1.49356 0.891654C1.53088 0.891654 1.57566 0.891654 1.61297 0.891654C2.79212 0.891654 3.97127 0.891654 5.15789 0.891654C6.01613 0.861802 6.73257 1.52601 6.76989 2.38425C6.76989 2.42156 6.76989 2.45142 6.76989 2.48873C6.77735 3.68281 6.77735 4.86942 6.76989 6.0635C6.79228 6.92174 6.12061 7.63072 5.26237 7.66057C5.22505 7.66057 5.1952 7.66057 5.15789 7.66057C3.97873 7.66057 2.79958 7.66057 1.61297 7.66057C0.754729 7.68296 0.0382829 7.0113 0.000967997 6.15305C0.000967997 6.11574 0.000967997 6.07096 0.000967997 6.03365C0.000967997 5.43661 0.000967997 4.83957 0.000967997 4.24253Z" fill="#464A61"/>
<path d="M11.2758 0.891622C11.6788 0.884159 12.0744 1.04088 12.3579 1.33194C13.0893 2.05585 13.8207 2.77229 14.5371 3.51113C15.1416 4.1007 15.1566 5.07089 14.567 5.67539C14.5595 5.68285 14.5521 5.69032 14.5371 5.70524C13.8207 6.44408 13.0968 7.17545 12.3579 7.88443C11.7684 8.48893 10.7982 8.50386 10.1937 7.91428C10.1862 7.90682 10.1788 7.89936 10.1638 7.88443C9.425 7.16799 8.70109 6.44408 7.98464 5.70524C7.38014 5.11567 7.36522 4.14548 7.95479 3.54098C7.96226 3.53352 7.96972 3.52605 7.97718 3.51859C8.69363 2.77976 9.425 2.05585 10.1564 1.3394C10.4549 1.04088 10.8579 0.876696 11.2758 0.891622Z" fill="#464A61"/>
<path d="M3.419 8.35476C4.00111 8.35476 4.59069 8.35476 5.1728 8.35476C6.03104 8.33237 6.74003 9.00404 6.76242 9.86228C6.76242 9.88467 6.76242 9.90706 6.76242 9.92945C6.76988 11.131 6.76988 12.3325 6.76242 13.5341C6.77734 14.3923 6.09821 15.0938 5.24743 15.1088C5.22504 15.1088 5.19519 15.1088 5.1728 15.1088C3.97872 15.1088 2.79211 15.1088 1.59803 15.1088C0.739793 15.1311 0.0233467 14.452 0.000957739 13.6012C0.000957739 13.5714 0.000957739 13.5341 0.000957739 13.5042C0.000957739 12.3251 0.000957739 11.1384 0.000957739 9.9593C-0.0288942 9.10105 0.642774 8.37715 1.50102 8.34729C1.54579 8.34729 1.58311 8.34729 1.62789 8.34729C2.22493 8.34729 2.82196 8.34729 3.419 8.34729" fill="#464A61"/>
<path d="M14.2773 11.716C14.2773 12.313 14.2773 12.9101 14.2773 13.5071C14.2997 14.3653 13.628 15.0818 12.7697 15.1042C12.7399 15.1042 12.7026 15.1042 12.6727 15.1042C11.4936 15.1042 10.3144 15.1042 9.12781 15.1042C8.26957 15.134 7.54566 14.4698 7.51581 13.6116C7.51581 13.5668 7.51581 13.5295 7.51581 13.4847C7.51581 12.313 7.51581 11.1488 7.51581 9.97711C7.47849 9.11886 8.1427 8.38749 9.00094 8.35018C9.05318 8.35018 9.10542 8.35018 9.15766 8.35018C10.3144 8.35018 11.4786 8.35018 12.6354 8.35018C13.4937 8.29794 14.2325 8.96214 14.2847 9.82038C14.2847 9.88009 14.2847 9.94725 14.2847 10.007V11.7309" fill="#464A61"/>
</g>
</svg>
